<svg version="1.1" id="Layer_1" xmlns="http://www.w3.org/2000/svg" xmlns:xlink="http://www.w3.org/1999/xlink" x="0px" y="0px"
	 width="100%" viewBox="0 0 250 255" enable-background="new 0 0 250 255" xml:space="preserve">
<path fill="#FFFFFF" opacity="1.000000" stroke="none" 
	d="
M1.000000,104.000000 
	C1.000000,69.730148 1.000000,35.460297 1.000000,1.000000 
	C45.354046,1.000000 89.708366,1.000000 134.530563,1.468657 
	C134.998444,12.511362 134.998444,23.085411 134.998444,33.659458 
	C135.412689,33.845787 135.826935,34.032116 136.241180,34.218449 
	C140.585739,28.737795 151.735214,29.936279 149.978943,18.359694 
	C152.456345,19.034288 154.555099,19.605778 156.561646,20.152161 
	C155.656326,26.077240 154.679138,31.404238 154.147873,36.775352 
	C154.029709,37.970104 155.164490,39.921917 156.262512,40.501011 
	C163.353989,44.240990 170.560440,47.771629 177.827972,51.158932 
	C178.825500,51.623859 181.004898,51.384720 181.545303,50.658783 
	C183.237076,48.386192 184.406326,45.724628 185.986237,42.832687 
	C179.782547,39.372116 173.957108,36.122528 168.261780,32.945526 
	C168.261780,30.179199 168.261780,27.440701 168.261780,23.254375 
	C177.602081,29.141851 186.095474,34.495495 194.807205,39.986763 
	C192.118652,43.334255 190.333633,45.556774 188.593277,47.723675 
	C191.802002,50.074196 194.417252,51.989975 196.806839,53.740448 
	C202.449829,52.477314 203.714890,40.814571 212.528778,47.769089 
	C205.918060,52.869354 199.331390,57.951061 191.854034,63.719944 
	C194.074448,66.089134 196.298523,70.327583 198.378174,70.257858 
	C201.765533,70.144318 205.058548,67.216286 208.618851,65.357170 
	C210.895798,68.636551 213.353760,72.176613 215.833511,75.748085 
	C212.535126,78.254044 209.658905,80.439270 206.782700,82.624489 
	C206.976547,82.980797 207.170410,83.337112 207.364273,83.693420 
	C217.018845,84.187096 226.673416,84.680779 236.842697,85.200775 
	C237.713348,80.361061 238.502075,75.976753 239.343506,71.299393 
	C236.501831,71.074928 234.531555,71.017525 232.592926,70.739510 
	C230.507736,70.440483 228.452255,69.934502 226.423676,69.526833 
	C225.525177,62.673313 225.525177,62.673313 216.689331,50.384407 
	C216.818405,50.233139 217.064438,49.920681 217.419907,49.968475 
	C220.318436,50.951107 223.134750,53.733322 224.968460,48.632641 
	C220.024612,42.958168 216.308807,35.655785 208.343994,34.556553 
	C207.728897,32.704670 207.691467,30.842607 206.747604,30.017717 
	C195.900940,20.538324 184.059235,12.593668 170.275330,8.009903 
	C162.589767,5.454108 154.763092,3.322670 147.000000,0.999999 
	C181.602829,1.000000 216.205673,1.000000 251.000000,1.000000 
	C251.000000,45.354046 251.000000,89.708366 250.531342,134.531357 
	C239.480759,135.000031 228.898819,135.000031 218.316895,135.000031 
	C218.013611,135.483505 217.710342,135.966980 217.407059,136.450455 
	C223.103592,140.938965 221.792099,151.709991 233.358780,152.009323 
	C232.367020,154.032013 230.883835,156.821304 229.609818,156.728836 
	C223.945831,156.317795 218.341721,155.081406 213.343964,154.248123 
	C208.922501,162.492874 204.616272,170.385925 200.506668,178.380051 
	C200.054596,179.259430 200.283630,181.154861 200.953049,181.838867 
	C206.034363,187.030869 209.209656,186.560089 212.909637,180.262848 
	C213.988419,178.426819 215.093674,176.584442 215.939682,174.637589 
	C218.769318,168.125885 219.007660,167.976746 228.185486,169.980301 
	C222.654938,178.599884 217.401123,186.788177 212.220642,194.862152 
	C208.885071,193.053101 205.890732,190.097275 203.710617,190.609161 
	C201.378876,191.156647 199.814774,194.973373 197.747772,197.574341 
	C199.756821,199.580353 201.600464,201.561966 203.593872,203.379303 
	C206.743576,206.250748 207.964600,209.146500 203.929886,212.654877 
	C198.740128,206.092056 193.567383,199.550751 188.217255,192.785126 
	C185.369049,195.083984 182.724106,197.218781 180.126343,199.315506 
	C182.424683,202.530853 184.590240,205.560455 186.866486,208.744888 
	C183.769760,211.083145 180.985367,213.399002 177.944901,215.306732 
	C177.313858,215.702652 175.419983,214.891159 174.649918,214.105270 
	C172.564453,211.976868 170.770294,209.563065 168.860596,207.262466 
	C168.240082,207.447113 167.619553,207.631744 166.999039,207.816376 
	C166.999039,216.395065 166.920074,224.975174 167.076187,233.551010 
	C167.102432,234.992722 167.846466,237.394470 168.770523,237.676559 
	C172.557999,238.832748 176.543518,239.340286 180.475616,240.090286 
	C181.161972,234.956635 181.742050,230.617981 182.225098,227.005020 
	C184.791779,226.484512 187.037979,226.586472 188.605789,225.604904 
	C193.040405,222.828461 197.197067,219.608078 201.614441,216.690491 
	C201.765656,216.818420 202.077438,217.062820 202.026657,217.426865 
	C201.639664,218.536377 201.046799,219.272873 201.020325,220.029205 
	C200.964096,221.634399 201.202820,223.249954 201.320618,224.861252 
	C202.834183,224.458557 204.559906,224.385437 205.813263,223.578552 
	C207.867432,222.256088 209.896164,220.686172 211.427338,218.806534 
	C213.911942,215.756439 215.985611,212.371597 218.552750,208.666153 
	C222.673691,210.273560 223.548859,205.313049 225.663437,202.721252 
	C235.000229,191.277313 241.924835,178.480377 246.045242,164.251328 
	C247.798416,158.196976 249.354401,152.085510 251.000000,146.000000 
	C251.000000,182.634628 251.000000,219.269241 251.000000,255.951935 
	C167.771561,255.951935 84.543076,255.951935 1.000000,255.951935 
	C1.000000,209.312912 1.000000,162.625107 1.468655,115.469933 
	C12.509081,115.002548 23.080851,115.002548 34.400867,115.002548 
	C29.149086,109.942986 30.313601,99.318245 19.246696,99.627113 
	C18.654911,95.407471 20.176941,93.363762 24.388411,94.055840 
	C29.375593,94.875381 34.333927,95.870491 38.948372,96.723610 
	C43.605473,87.837326 48.145504,79.174431 52.889965,70.121445 
	C49.966351,68.390938 46.914890,66.584763 43.471817,64.546783 
	C40.923088,68.732040 37.978310,72.273415 36.473484,76.346748 
	C34.300285,82.229256 30.516830,82.888840 24.104038,81.273506 
	C29.761028,72.504784 35.131950,64.179489 40.646534,55.631516 
	C43.855446,58.126900 46.223587,59.968464 48.579777,61.800739 
	C50.839390,58.942299 52.909813,56.323185 55.211906,53.411011 
	C53.254505,51.558113 51.589790,49.645367 49.600571,48.170204 
	C45.602135,45.205040 45.205009,42.108295 48.987652,38.237316 
	C54.172741,44.989357 59.326424,51.700497 64.412270,58.323296 
	C66.292755,57.151859 67.444817,56.518391 68.505463,55.757496 
	C71.549614,53.573658 73.599251,51.398457 69.650734,47.940037 
	C68.065071,46.551186 67.299545,44.225975 66.113098,42.247501 
	C70.051727,39.642200 73.576988,37.310329 76.990654,35.052280 
	C79.331131,38.294010 81.498596,41.296104 83.666069,44.298203 
	C84.088318,44.042168 84.510559,43.786137 84.932808,43.530102 
	C85.561531,33.887836 86.190262,24.245569 86.842262,14.246290 
	C82.303146,13.302867 78.048973,12.418666 73.629150,11.500035 
	C72.434265,16.548725 71.437592,20.759951 70.469772,24.849270 
	C62.129852,24.792305 57.221600,30.362316 51.385239,34.312202 
	C51.233181,34.181835 50.918613,33.933826 50.969242,33.566341 
	C51.577682,32.010559 52.320404,30.867828 52.628395,29.617971 
	C52.834301,28.782410 52.737579,27.359489 52.211624,26.978088 
	C51.447193,26.423758 49.771420,26.047071 49.179863,26.501038 
	C43.508396,30.853411 37.336739,34.855385 35.589207,41.431210 
	C33.357731,42.684616 31.139194,43.287483 29.897568,44.730762 
	C20.634386,55.498383 12.561388,67.068665 8.012714,80.688568 
	C5.443433,88.381668 3.322749,96.224571 1.000000,104.000000 
M119.037270,156.650070 
	C119.196762,157.295975 119.356255,157.941879 119.515739,158.587784 
	C120.031097,158.100967 120.546448,157.614151 121.613846,156.815765 
	C122.106422,155.893494 122.598999,154.971222 123.685120,154.371735 
	C123.834305,155.256638 123.983498,156.141525 124.145409,157.541718 
	C124.415016,157.743057 124.684624,157.944382 125.333527,158.683014 
	C126.541260,157.496643 127.748985,156.310287 129.025299,155.565750 
	C129.025299,155.565750 129.153320,155.994156 129.280640,156.685211 
	C129.890625,157.438522 130.500595,158.191849 131.302582,159.182297 
	C131.952835,156.808121 132.457382,154.965897 133.120560,153.552780 
	C133.300735,153.824051 133.551819,153.984070 134.100983,154.518036 
	C134.392227,154.713837 134.683472,154.909653 135.045105,155.816086 
	C138.532471,156.681442 136.100876,153.258774 137.761307,152.458313 
	C139.075485,153.200806 140.600357,154.062347 142.359741,155.056381 
	C142.359741,153.301071 142.359741,151.776230 142.359741,149.923050 
	C143.965210,150.721237 145.173569,151.322021 147.003159,152.231644 
	C146.633347,149.881317 146.372147,148.221130 146.101059,146.498245 
	C147.816254,146.958450 149.243683,147.341431 151.114197,147.843307 
	C150.439957,145.982803 149.996643,144.759521 149.818909,143.230377 
	C149.818909,143.230377 150.070801,142.913162 150.818466,142.976959 
	C151.835632,142.815201 152.852783,142.653442 154.368683,142.412369 
	C153.124054,140.747787 152.269760,139.605240 151.210815,138.188995 
	C153.200882,138.054184 154.794250,137.946228 156.788071,137.811157 
	C155.515549,136.132721 154.490891,134.781235 153.383575,133.320709 
	C155.102814,133.017914 156.468857,132.777313 158.631729,132.396393 
	C156.813309,130.738724 155.597656,129.630539 154.291214,128.439590 
	C155.998871,127.591988 157.482376,126.855629 159.519531,125.844467 
	C157.038788,124.896309 155.289429,124.227684 153.530136,123.555267 
	C155.235687,122.456482 156.784714,121.458534 159.488220,119.716843 
	C156.468475,119.156738 155.012512,118.886696 153.281479,118.565620 
	C154.587189,116.967743 155.602676,115.725021 156.879959,114.161942 
	C155.277222,114.161942 154.135849,114.161942 152.376984,114.038834 
	C151.958069,114.011780 151.539169,113.984734 151.293701,113.307991 
	C152.250137,112.153465 153.206589,110.998940 155.004303,108.828903 
	C151.876617,109.353424 150.222473,109.630821 148.360397,109.943092 
	C149.361664,107.980644 150.200592,106.336365 151.535202,103.720596 
	C148.900070,104.686508 147.343597,105.257042 145.491196,105.936043 
	C146.052078,103.934464 146.519211,102.267372 147.164673,99.963943 
	C145.030777,101.063133 143.679779,101.759041 142.098785,102.573425 
	C142.098785,100.567070 142.098785,98.942200 142.098785,96.745506 
	C140.075012,98.468674 138.601990,99.722900 137.031494,100.168098 
	C137.000931,98.876106 137.061615,97.571312 136.883331,96.300034 
	C136.830933,95.926483 136.101120,95.647934 135.681763,95.325844 
	C135.421967,95.865677 135.162170,96.405510 134.313370,97.226616 
	C133.733292,97.695778 133.153229,98.164940 132.357010,98.808929 
	C132.050705,96.952042 131.825699,95.587914 131.501968,93.625343 
	C129.963531,94.962273 128.859711,95.921509 127.664619,96.960075 
	C127.092590,95.431358 126.646866,94.240189 126.014130,92.549232 
	C124.710449,94.664413 123.794022,96.151291 122.807114,97.752518 
	C122.137115,96.651550 121.595535,95.761604 120.635780,94.317406 
	C120.142372,95.529587 119.648964,96.741760 118.921989,98.427780 
	C118.621811,98.571991 118.321632,98.716202 117.846855,98.415703 
	C117.648163,98.144348 117.383560,97.977493 117.005302,97.997673 
	C117.005302,97.997673 117.083717,97.943306 116.790199,97.340073 
	C116.008606,96.681961 115.227013,96.023857 114.562325,95.464180 
	C114.001839,97.451828 113.518906,99.164444 112.727043,100.266006 
	C111.764183,99.489769 110.801315,98.713531 109.275200,97.483215 
	C109.275200,99.790764 109.275200,101.289284 109.275200,102.863434 
	C107.467796,102.204239 105.935562,101.645401 103.660759,100.815742 
	C104.569939,103.068237 105.082130,104.337189 105.742271,105.972694 
	C103.578308,105.646896 101.950386,105.401810 99.319267,105.005692 
	C100.810562,107.107529 101.678459,108.330750 102.861801,109.998558 
	C100.617744,109.645859 98.972198,109.387230 96.420067,108.986122 
	C97.809196,111.064407 98.656570,112.332176 99.569473,113.697983 
	C97.909523,113.981583 96.536057,114.216240 94.475319,114.568314 
	C96.055382,116.302216 97.156754,117.510818 98.100998,118.546997 
	C96.726723,119.156052 95.352524,119.765068 93.423294,120.620071 
	C95.234543,121.952286 96.329788,122.757858 97.336311,123.498177 
	C95.847153,124.252052 94.458496,124.955055 92.412895,125.990623 
	C94.492073,127.089867 95.904221,127.836449 97.040817,128.437363 
	C95.995033,129.621750 94.959488,130.794556 93.461929,132.490601 
	C95.599663,132.858200 97.023598,133.103043 98.757988,133.401291 
	C97.211792,134.822266 96.082962,135.859665 94.368141,137.435623 
	C96.608803,137.848709 98.031425,138.110992 99.536423,138.388458 
	C98.563927,139.911316 97.805031,141.099686 96.620003,142.955338 
	C99.081398,142.586761 100.749260,142.337021 102.789307,142.031540 
	C101.677910,143.706253 100.821182,144.997223 99.481865,147.015381 
	C101.995689,146.633865 103.663368,146.380783 105.554863,146.093719 
	C105.029915,147.790726 104.594872,149.197128 103.901520,151.438583 
	C106.116013,150.647049 107.463242,150.165512 109.083420,149.586411 
	C108.799843,151.514862 108.574059,153.050323 108.204620,155.562698 
	C110.419304,153.847992 111.986893,152.634293 114.018135,151.061615 
	C113.899849,153.364029 113.811432,155.085007 113.723015,156.805984 
	C114.089027,157.166916 114.455040,157.527863 114.821060,157.888794 
	C115.560020,156.636597 116.298981,155.384384 117.583168,154.211258 
	C118.033813,154.519257 118.484451,154.827255 119.021645,155.574799 
	C119.021645,155.574799 119.156670,156.001968 119.037270,156.650070 
M58.003296,201.995636 
	C58.003296,201.995636 58.069199,201.954895 57.775185,201.332428 
	C55.952400,200.088730 54.996651,196.446136 51.849140,198.782303 
	C49.375324,200.618439 47.223656,202.888596 44.266914,205.262268 
	C42.873974,205.497208 41.481030,205.732147 39.820320,205.382492 
	C36.230167,201.382889 41.122871,200.600159 42.607121,199.344437 
	C47.643745,195.083282 53.154850,191.382965 58.650005,187.347015 
	C56.766537,185.343430 55.232998,184.319016 54.574760,182.891113 
	C52.989002,179.451187 51.252178,179.361572 48.537090,181.697495 
	C46.657387,183.314682 44.393162,184.484909 42.000980,186.051147 
	C39.387318,182.006897 37.100155,178.467834 34.872910,175.021515 
	C38.242340,172.545303 41.208702,170.365311 45.284981,167.369629 
	C33.845867,166.587860 24.207159,165.929138 14.139945,165.241135 
	C13.081293,169.768204 12.062144,174.126343 10.980064,178.753601 
	C15.900677,179.675110 20.338686,180.506226 24.397224,181.266296 
	C23.808475,189.787811 30.415932,194.390060 34.176197,200.826920 
	C30.704285,201.100769 27.233700,196.467850 25.043180,201.593506 
	C26.445322,203.564056 27.467590,205.698395 29.098360,207.148331 
	C32.563900,210.229630 36.346001,212.954895 40.660477,215.959427 
	C41.121593,216.578674 41.720703,217.139587 42.012688,217.830353 
	C42.495377,218.972290 42.407780,220.615784 43.204231,221.325302 
	C54.114578,231.044815 66.143661,239.220673 80.032005,243.833878 
	C90.386589,247.273300 101.211189,249.321060 111.885406,251.727234 
	C112.676926,251.905655 114.832153,249.992340 114.853653,249.018341 
	C115.076279,238.931274 114.990555,228.837402 114.990555,218.745422 
	C109.587273,223.543655 98.223511,221.819092 100.021927,233.744492 
	C97.407730,232.939209 95.218689,232.264877 93.253105,231.659409 
	C93.914558,227.749603 94.679703,224.555573 94.958817,221.319626 
	C95.698074,212.749191 95.610519,212.749969 87.672920,208.881332 
	C85.449791,207.797821 83.208992,206.736542 81.060875,205.516190 
	C77.273392,203.364517 73.550941,201.098373 69.806374,198.883163 
	C68.654053,200.765549 67.917435,202.258774 66.916809,203.546906 
	C64.325966,206.882141 64.428093,209.380005 68.608604,211.338730 
	C72.327179,213.081009 76.015602,214.983231 79.409615,217.271317 
	C80.610405,218.080826 81.324471,220.193863 81.491989,221.792328 
	C81.662170,223.416199 80.884193,225.139435 80.416542,227.304901 
	C77.419159,225.640869 74.766052,224.354416 72.308418,222.765579 
	C66.836037,219.227783 61.461414,215.538773 56.041203,211.210861 
	C57.470375,208.954178 58.899551,206.697479 60.525902,204.129440 
	C59.909912,203.583389 58.977707,202.757034 58.003296,201.995636 
M191.696625,232.260574 
	C194.106689,233.403244 196.675034,234.055206 197.491745,230.689804 
	C197.793167,229.447739 196.683807,227.169876 195.530029,226.412903 
	C193.150253,224.851593 191.036316,227.569077 190.375900,231.800446 
	C188.795547,231.490295 187.057632,230.654770 185.693039,231.064026 
	C184.853897,231.315704 184.098999,233.517883 184.220459,234.754456 
	C184.311371,235.679840 185.780579,237.067245 186.776932,237.201202 
	C190.747055,237.734970 191.206467,235.043655 191.696625,232.260574 
M62.342415,19.753775 
	C59.947601,17.611542 57.398750,16.322908 56.211803,20.572437 
	C55.888428,21.730185 57.526646,24.593824 58.569275,24.759714 
	C61.799797,25.273714 63.144039,23.075418 63.659187,20.223515 
	C65.538872,19.867445 67.486237,19.685438 69.239357,19.003826 
	C69.577232,18.872461 69.602524,16.344830 68.974426,15.702309 
	C68.079506,14.786834 66.447563,14.591836 65.130447,14.089076 
	C64.430138,16.066559 63.729820,18.044041 62.342415,19.753775 
M231.989655,60.277294 
	C231.712830,58.420151 231.672043,56.466709 230.982986,54.777748 
	C230.823074,54.385765 227.885071,54.390038 227.239731,55.114956 
	C226.382629,56.077774 225.917130,58.967903 226.337067,59.211208 
	C228.012466,60.181873 230.096497,60.447239 231.675034,61.645458 
	C231.162582,63.177837 230.386780,64.693146 230.285690,66.252197 
	C230.251999,66.772255 232.103012,68.033142 232.816101,67.854187 
	C234.300385,67.481712 236.639404,66.527557 236.785233,65.540359 
	C237.265091,62.291832 235.175827,60.848652 231.989655,60.277294 
M137.029129,197.293152 
	C139.038086,193.011948 141.118484,188.761719 143.000031,184.425232 
	C143.411499,183.476898 143.113724,182.220840 143.142593,181.106491 
	C142.020828,181.308395 140.898590,181.507629 139.777466,181.713013 
	C138.807068,181.890793 137.837936,182.075562 136.868256,182.257217 
	C136.893448,181.243454 136.825363,180.216660 136.964783,179.218857 
	C137.197464,177.553528 137.562881,175.906754 138.063049,173.233246 
	C130.624115,178.550140 130.294800,184.025452 135.732956,190.818481 
	C137.109985,193.043182 129.035873,196.851837 137.366852,198.643311 
	C141.550064,204.907318 145.733261,211.171310 150.299652,218.009079 
	C151.530853,216.387817 151.909836,215.701828 152.462875,215.212616 
	C153.026382,214.714127 153.761108,214.409195 155.760895,213.228043 
	C155.447510,220.896042 153.906021,228.408813 161.665070,233.041122 
	C162.134293,227.640518 162.628021,222.633255 162.968491,217.615601 
	C163.066879,216.165695 163.224487,214.353851 162.505707,213.272400 
	C156.837708,204.744690 150.963837,196.353775 144.681717,187.236298 
	C143.365005,189.620575 142.602554,191.409317 141.478592,192.931046 
	C140.135452,194.749557 138.483017,196.339630 137.029129,197.293152 
M25.961088,136.229538 
	C25.443457,132.388596 22.498188,133.106323 19.748695,132.302963 
	C20.850193,131.137924 21.951691,129.972870 23.461308,128.376160 
	C15.740922,128.376160 9.008482,128.376160 1.362705,128.376160 
	C2.972505,140.566467 4.516808,152.260788 6.170956,164.786942 
	C22.768373,152.938538 38.291367,141.857147 54.190754,130.507050 
	C46.555401,128.333832 39.969959,127.956718 34.345718,133.814285 
	C32.677135,135.552094 30.453871,136.814651 28.324396,138.009033 
	C27.839508,138.280991 26.689281,137.366714 25.961088,136.229538 
M225.045197,112.503181 
	C225.045197,112.503181 225.205032,112.950256 225.054169,113.643661 
	C225.704407,114.706856 226.354660,115.770050 227.632523,117.155670 
	C229.403732,117.148315 231.174927,117.140961 232.669571,117.770668 
	C231.359039,119.151802 230.048508,120.532944 227.985962,122.706627 
	C236.106354,122.706627 242.825546,122.706627 250.324600,122.706627 
	C248.412888,110.288017 246.562668,98.268799 244.603775,85.543648 
	C228.585144,97.481201 213.153076,108.981613 197.721024,120.482025 
	C197.998749,120.911957 198.276459,121.341888 198.554184,121.771828 
	C204.865219,122.179665 211.103165,123.059158 216.309052,117.511078 
	C218.550461,115.122353 221.977051,113.845711 225.045197,112.503181 
M139.160980,226.018219 
	C133.794876,225.630508 133.972015,229.256119 134.736649,233.673676 
	C132.894257,231.746506 131.699753,230.497009 130.505234,229.247528 
	C130.089127,229.316910 129.673004,229.386292 129.256897,229.455673 
	C129.256897,236.119141 129.213699,242.783783 129.394287,249.442352 
	C129.402634,249.750427 131.458649,250.353790 132.488571,250.227798 
	C140.634949,249.231064 148.771317,248.142822 156.893951,246.966644 
	C159.837402,246.540390 162.735077,245.798111 166.262161,245.075333 
	C154.273849,228.868271 142.802414,213.359970 131.330978,197.851669 
	C130.135941,204.594376 128.588898,210.709579 133.382736,215.940887 
	C136.037125,218.837540 138.103516,222.272995 140.180573,225.767258 
	C140.180573,225.767258 139.937027,226.077759 139.160980,226.018219 
M172.935165,197.504044 
	C194.873749,182.148254 207.835846,161.432617 211.127319,135.279556 
	C201.412277,135.279556 192.311188,135.279556 183.151962,135.279556 
	C186.241974,146.264191 186.241974,146.264191 193.648560,147.518570 
	C190.060989,163.365707 175.279953,179.992081 163.283585,184.187973 
	C157.494354,175.812027 151.719070,167.456284 145.999542,159.181183 
	C142.080856,160.768478 138.628738,162.166779 134.998199,163.637360 
	C135.529343,164.822876 135.859344,165.949982 136.479904,166.884033 
	C142.576599,176.060638 148.658905,185.247940 154.869583,194.347397 
	C161.911209,204.664307 161.966537,204.626541 172.935165,197.504044 
M99.900742,83.651955 
	C101.375542,86.014847 102.648361,88.546265 104.416039,90.664780 
	C105.219414,91.627609 107.160011,92.433762 108.310341,92.159599 
	C111.231590,91.463379 113.997932,90.117195 117.065651,88.939331 
	C116.688255,87.888626 116.488197,86.721992 115.904099,85.798187 
	C108.711472,74.422218 101.368591,63.139961 94.287659,51.695446 
	C92.249046,48.400551 90.225899,48.806946 87.331657,50.251900 
	C65.486031,61.158375 51.378628,78.621780 43.820847,101.570793 
	C42.341713,106.062141 41.621906,110.803566 40.473995,115.766373 
	C50.382236,115.766373 58.982006,115.766373 68.472656,115.766373 
	C67.140701,111.507599 65.956352,107.720810 64.793533,104.002838 
	C62.243008,104.372734 60.281891,104.657143 57.808628,105.015831 
	C62.535126,88.079880 72.789444,76.608620 86.802567,68.229454 
	C87.585068,67.761559 90.085907,68.848991 90.847633,69.895927 
	C93.930435,74.133049 96.645432,78.637772 99.900742,83.651955 
M96.750626,206.888885 
	C102.953415,208.503708 109.156197,210.118530 115.498489,211.769684 
	C115.498489,201.664490 115.498489,193.033951 115.498489,184.410217 
	C107.937492,184.095474 104.772415,186.545670 103.347122,194.160782 
	C86.992760,188.919540 75.269707,178.458344 66.761902,163.231201 
	C72.346794,159.513992 77.810905,155.925034 83.225395,152.262711 
	C92.380363,146.070374 92.370537,146.049698 88.739899,135.721024 
	C88.659698,135.492874 88.253090,135.379456 87.544350,134.914276 
	C74.495720,143.256012 61.260864,151.716797 47.791023,160.327789 
	C57.548840,182.749344 73.778503,197.776154 96.750626,206.888885 
M134.997040,52.592861 
	C134.997040,57.656898 134.997040,62.720932 134.997040,67.804108 
	C143.215103,67.316780 144.899139,65.846672 146.818436,57.788010 
	C163.271759,63.061852 175.639725,73.056564 184.175110,88.242134 
	C175.596863,94.218758 167.284958,100.009819 158.901123,105.850983 
	C160.243210,109.681786 161.512589,113.305107 162.996292,117.540123 
	C176.456543,108.507309 189.579544,99.700821 202.795227,90.832130 
	C196.552856,67.421150 153.230438,36.302921 134.199829,41.829350 
	C134.465622,45.095688 134.731430,48.362030 134.997040,52.592861 
M107.348671,3.993193 
	C101.023186,4.757130 94.697701,5.521066 87.106606,6.437852 
	C98.854797,22.839676 110.131660,38.583477 121.797493,54.870319 
	C126.674408,41.507481 117.609604,34.283840 111.117493,24.628738 
	C118.405006,28.658945 119.035210,24.247087 119.447456,19.769558 
	C121.017822,21.094013 122.127335,22.029787 123.658203,23.320930 
	C123.658203,15.760477 123.658203,9.034316 123.658203,1.567333 
	C118.226601,2.415082 113.239052,3.193524 107.348671,3.993193 
M69.011086,93.893318 
	C69.010063,94.891479 68.590813,96.232590 69.079811,96.828934 
	C71.296227,99.531883 73.530632,102.361504 76.327957,104.340775 
	C76.974670,104.798355 80.111404,102.333168 81.643250,100.764610 
	C82.997360,99.378036 83.712074,97.367012 85.127289,94.903824 
	C87.783615,98.430428 88.884178,100.023003 90.121666,101.500923 
	C91.639496,103.313637 93.220642,105.413902 95.739204,102.759171 
	C97.679543,100.713921 100.881340,99.118057 97.213257,95.594185 
	C93.653160,92.174065 90.589035,88.237686 86.885712,84.051712 
	C87.713631,83.454460 88.459366,82.759445 89.333038,82.317108 
	C91.534599,81.202454 93.163391,79.982635 90.952629,77.447556 
	C89.181717,75.416832 87.794357,74.415321 84.764313,76.411758 
	C78.127449,80.784660 73.314034,86.613174 69.011086,93.893318 
M79.977745,160.529083 
	C77.955788,161.502747 75.933838,162.476395 73.922913,163.444748 
	C78.087502,171.660675 84.177223,177.261063 91.331970,181.864594 
	C94.956841,184.196915 98.535591,183.468018 101.848640,179.681091 
	C104.831680,176.271378 104.670250,173.273041 100.999435,170.443176 
	C99.385567,169.199036 97.995796,167.664246 96.380325,166.144836 
	C99.004257,163.574554 101.561783,161.069336 104.092178,158.590698 
	C99.324051,152.592270 99.300079,152.559723 93.595963,156.760742 
	C91.750755,158.119705 89.774513,159.465118 88.371468,161.225739 
	C85.487679,164.844467 83.041359,164.413361 79.977745,160.529083 
M154.603088,85.465790 
	C152.060226,88.159187 149.517365,90.852592 146.747208,93.786743 
	C147.419159,94.381302 148.205795,94.777367 148.527939,95.409981 
	C151.027390,100.317993 153.502380,99.332802 156.741287,95.909286 
	C159.730576,92.749611 163.334045,90.170975 166.679657,87.325661 
	C168.382599,88.903900 169.939240,90.346535 171.617783,91.902168 
	C173.058212,89.505569 179.134460,89.315002 175.331787,85.097656 
	C170.197662,79.403641 164.325409,74.342590 158.474564,69.356461 
	C157.376297,68.420509 154.697510,68.568672 153.084335,69.149864 
	C147.953674,70.998352 145.271362,77.049934 148.087204,79.895378 
	C149.934143,81.761726 152.060318,83.351738 154.603088,85.465790 
M164.671204,176.848083 
	C172.565414,173.397110 177.352844,166.683960 181.939499,159.927261 
	C184.658966,155.921158 182.789261,151.803925 177.514801,148.002823 
	C173.483688,145.097733 171.925262,148.838882 169.793671,150.784348 
	C168.408234,152.048813 167.369598,153.693283 165.992859,155.393082 
	C164.249771,153.296295 162.852844,151.709885 161.561401,150.041840 
	C159.242035,147.046127 157.350266,147.976105 155.088257,150.297165 
	C152.976379,152.464188 152.293579,154.022079 154.838089,156.448608 
	C158.405685,159.850769 161.598984,163.645432 165.099197,167.430984 
	C163.251266,169.149368 161.709778,170.582794 159.087158,173.021576 
	C160.799591,174.219666 162.426270,175.357773 164.671204,176.848083 
M102.504456,56.957401 
	C104.182518,59.321053 105.860580,61.684704 107.957962,64.638985 
	C110.254135,60.894684 112.304764,57.791965 114.066010,54.532860 
	C114.599144,53.546318 114.874702,51.766621 114.342583,50.963676 
	C110.677879,45.433826 106.767776,40.066601 102.810341,34.468441 
	C101.165039,35.965321 100.045563,36.983810 98.478188,38.409798 
	C97.910675,36.463463 96.746796,34.662514 97.236275,33.801357 
	C100.901054,27.353922 95.540276,23.736891 92.705269,19.104816 
	C91.646317,22.540945 91.558151,26.091639 90.667542,29.428137 
	C89.336990,34.412811 89.860626,38.625931 93.146362,42.824162 
	C96.468025,47.068287 99.142685,51.818779 102.504456,56.957401 
M28.263075,161.143234 
	C31.799955,161.115356 36.046047,162.346527 38.742889,160.827377 
	C47.394257,155.954041 55.472637,150.063522 64.413460,144.140594 
	C60.234024,141.710968 56.598103,139.509338 52.858795,137.500122 
	C52.138275,137.112961 50.743530,137.106125 50.115936,137.557724 
	C44.694992,141.458420 39.378544,145.504349 33.592941,149.834854 
	C35.312054,150.818817 36.493809,151.495209 37.675564,152.171600 
	C37.698036,152.657288 37.720505,153.142975 37.742973,153.628662 
	C35.801666,153.903442 33.729027,154.753067 31.943680,154.345184 
	C26.594629,153.123138 22.727942,154.575348 18.829746,160.250595 
	C21.840864,160.525696 24.618799,160.779480 28.263075,161.143234 
M213.011734,104.499802 
	C214.353058,103.416740 215.694397,102.333672 217.242294,101.083809 
	C215.699799,99.982491 214.562134,99.170219 213.424469,98.357941 
	C213.451553,97.834763 213.478653,97.311592 213.505753,96.788414 
	C215.809952,96.788414 218.194824,96.406097 220.400772,96.871658 
	C224.423996,97.720741 230.080994,94.570709 231.428024,90.447418 
	C228.376282,89.973618 225.301544,89.158966 222.213623,89.105446 
	C218.659149,89.043854 214.722137,88.813057 211.621979,90.178520 
	C207.352219,92.059174 203.681854,95.325821 199.808655,98.074722 
	C195.759628,100.948387 191.774506,103.912079 187.623734,106.936775 
	C197.920197,115.372467 199.071411,115.398575 208.543518,107.953476 
	C209.833054,106.939911 211.173019,105.990509 213.011734,104.499802 
M61.922451,139.496384 
	C64.942703,140.850464 67.458664,144.178253 72.200775,141.989197 
	C70.697121,140.161331 69.550484,138.767441 68.403839,137.373566 
	C68.479431,136.958115 68.555016,136.542664 68.630608,136.127213 
	C71.639862,136.672821 74.649117,137.218414 77.778366,137.785782 
	C76.729866,132.903061 69.043159,129.247665 65.551903,131.823776 
	C62.540558,134.045792 59.791084,136.030853 56.053082,133.193390 
	C55.598358,132.848206 54.210575,133.732208 53.255219,134.046555 
	C53.180676,134.494614 53.106133,134.942688 53.031590,135.390747 
	C55.771019,136.636261 58.510445,137.881790 61.922451,139.496384 
M112.895493,61.343307 
	C111.308609,64.330940 109.721725,67.318573 108.182838,70.215836 
	C111.528358,73.618362 112.907356,70.412857 114.644455,68.500580 
	C115.130661,68.680107 115.616859,68.859642 116.103058,69.039169 
	C115.471619,71.874763 114.840179,74.710365 114.080765,78.120644 
	C119.564293,77.422455 119.884453,72.376900 121.255669,69.508507 
	C122.066460,67.812462 118.509926,64.028625 117.052422,61.425003 
	C117.719505,59.259350 118.454979,56.871658 119.190453,54.483967 
	C118.533218,54.186821 117.875984,53.889679 117.218758,53.592533 
	C115.846222,55.934677 114.473686,58.276817 112.895493,61.343307 
M181.623108,115.088913 
	C178.847931,114.733566 176.072754,114.378220 172.253937,113.889244 
	C175.379562,119.014816 180.030472,119.339111 183.928528,120.916298 
	C187.590332,116.066048 192.507385,115.896873 198.101761,118.253586 
	C198.201355,117.515518 198.300949,116.777451 198.400543,116.039383 
	C192.560577,113.240265 186.720612,110.441139 180.880646,107.642014 
	C180.493484,108.016090 180.106323,108.390175 179.719162,108.764259 
	C180.581757,110.790977 181.444336,112.817696 181.623108,115.088913 
M17.994995,192.599960 
	C19.231468,193.725128 20.319260,195.245377 21.773239,195.792557 
	C22.407532,196.031250 24.617519,194.300720 24.644180,193.420074 
	C24.684877,192.075775 23.735588,189.850800 22.701002,189.502747 
	C20.585518,188.791092 21.188454,187.570099 20.832092,186.151810 
	C20.473381,184.724152 19.009689,183.284271 17.652775,182.518448 
	C16.965126,182.130341 14.642880,183.007751 14.468482,183.679031 
	C14.100943,185.093704 14.323997,186.901260 14.936430,188.263626 
	C15.546697,189.621185 16.929594,190.631424 17.994995,192.599960 
z"/>
<path fill="#D3AD67" opacity="1.000000" stroke="none" 
	d="
M201.463226,216.562561 
	C197.197067,219.608078 193.040405,222.828461 188.605789,225.604904 
	C187.037979,226.586472 184.791779,226.484512 182.225098,227.005020 
	C181.742050,230.617981 181.161972,234.956635 180.475616,240.090286 
	C176.543518,239.340286 172.557999,238.832748 168.770523,237.676559 
	C167.846466,237.394470 167.102432,234.992722 167.076187,233.551010 
	C166.920074,224.975174 166.999039,216.395065 166.999039,207.816376 
	C167.619553,207.631744 168.240082,207.447113 168.860596,207.262466 
	C170.770294,209.563065 172.564453,211.976868 174.649918,214.105270 
	C175.419983,214.891159 177.313858,215.702652 177.944901,215.306732 
	C180.985367,213.399002 183.769760,211.083145 186.866486,208.744888 
	C184.590240,205.560455 182.424683,202.530853 180.126343,199.315506 
	C182.724106,197.218781 185.369049,195.083984 188.217255,192.785126 
	C193.567383,199.550751 198.740128,206.092056 203.929886,212.654877 
	C207.964600,209.146500 206.743576,206.250748 203.593872,203.379303 
	C201.600464,201.561966 199.756821,199.580353 197.747772,197.574341 
	C199.814774,194.973373 201.378876,191.156647 203.710617,190.609161 
	C205.890732,190.097275 208.885071,193.053101 212.220642,194.862152 
	C217.401123,186.788177 222.654938,178.599884 228.185486,169.980301 
	C219.007660,167.976746 218.769318,168.125885 215.939682,174.637589 
	C215.093674,176.584442 213.988419,178.426819 212.909637,180.262848 
	C209.209656,186.560089 206.034363,187.030869 200.953049,181.838867 
	C200.283630,181.154861 200.054596,179.259430 200.506668,178.380051 
	C204.616272,170.385925 208.922501,162.492874 213.343964,154.248123 
	C218.341721,155.081406 223.945831,156.317795 229.609818,156.728836 
	C230.883835,156.821304 232.367020,154.032013 233.358780,152.009323 
	C221.792099,151.709991 223.103592,140.938965 217.407059,136.450455 
	C217.710342,135.966980 218.013611,135.483505 218.316895,135.000031 
	C228.898819,135.000031 239.480759,135.000031 250.531342,135.000015 
	C251.000000,138.361282 251.000000,141.722580 251.000000,145.541931 
	C249.354401,152.085510 247.798416,158.196976 246.045242,164.251328 
	C241.924835,178.480377 235.000229,191.277313 225.663437,202.721252 
	C223.548859,205.313049 222.673691,210.273560 218.552750,208.666153 
	C215.985611,212.371597 213.911942,215.756439 211.427338,218.806534 
	C209.896164,220.686172 207.867432,222.256088 205.813263,223.578552 
	C204.559906,224.385437 202.834183,224.458557 201.320618,224.861252 
	C201.202820,223.249954 200.964096,221.634399 201.020325,220.029205 
	C201.046799,219.272873 201.639664,218.536377 202.273651,217.294647 
	C202.600266,216.379593 202.629105,215.960785 202.657928,215.541977 
	C202.259705,215.882172 201.861465,216.222366 201.463226,216.562561 
z"/>
<path fill="#D3AD68" opacity="1.000000" stroke="none" 
	d="
M1.000000,104.458069 
	C3.322749,96.224571 5.443433,88.381668 8.012714,80.688568 
	C12.561388,67.068665 20.634386,55.498383 29.897568,44.730762 
	C31.139194,43.287483 33.357731,42.684616 35.589207,41.431210 
	C37.336739,34.855385 43.508396,30.853411 49.179863,26.501038 
	C49.771420,26.047071 51.447193,26.423758 52.211624,26.978088 
	C52.737579,27.359489 52.834301,28.782410 52.628395,29.617971 
	C52.320404,30.867828 51.577682,32.010559 50.722641,33.699356 
	C50.396656,34.619251 50.367908,35.038647 50.339161,35.458042 
	C50.738537,35.119549 51.137917,34.781055 51.537292,34.442566 
	C57.221600,30.362316 62.129852,24.792305 70.469772,24.849270 
	C71.437592,20.759951 72.434265,16.548725 73.629150,11.500035 
	C78.048973,12.418666 82.303146,13.302867 86.842262,14.246290 
	C86.190262,24.245569 85.561531,33.887836 84.932808,43.530102 
	C84.510559,43.786137 84.088318,44.042168 83.666069,44.298203 
	C81.498596,41.296104 79.331131,38.294010 76.990654,35.052280 
	C73.576988,37.310329 70.051727,39.642200 66.113098,42.247501 
	C67.299545,44.225975 68.065071,46.551186 69.650734,47.940037 
	C73.599251,51.398457 71.549614,53.573658 68.505463,55.757496 
	C67.444817,56.518391 66.292755,57.151859 64.412270,58.323296 
	C59.326424,51.700497 54.172741,44.989357 48.987652,38.237316 
	C45.205009,42.108295 45.602135,45.205040 49.600571,48.170204 
	C51.589790,49.645367 53.254505,51.558113 55.211906,53.411011 
	C52.909813,56.323185 50.839390,58.942299 48.579777,61.800739 
	C46.223587,59.968464 43.855446,58.126900 40.646534,55.631516 
	C35.131950,64.179489 29.761028,72.504784 24.104038,81.273506 
	C30.516830,82.888840 34.300285,82.229256 36.473484,76.346748 
	C37.978310,72.273415 40.923088,68.732040 43.471817,64.546783 
	C46.914890,66.584763 49.966351,68.390938 52.889965,70.121445 
	C48.145504,79.174431 43.605473,87.837326 38.948372,96.723610 
	C34.333927,95.870491 29.375593,94.875381 24.388411,94.055840 
	C20.176941,93.363762 18.654911,95.407471 19.246696,99.627113 
	C30.313601,99.318245 29.149086,109.942986 34.400867,115.002548 
	C23.080851,115.002548 12.509081,115.002548 1.468655,115.001274 
	C1.000000,111.638710 1.000000,108.277428 1.000000,104.458069 
z"/>
<path fill="#D3AD68" opacity="1.000000" stroke="none" 
	d="
M146.539368,0.999999 
	C154.763092,3.322670 162.589767,5.454108 170.275330,8.009903 
	C184.059235,12.593668 195.900940,20.538324 206.747604,30.017717 
	C207.691467,30.842607 207.728897,32.704670 208.343994,34.556553 
	C216.308807,35.655785 220.024612,42.958168 224.968460,48.632641 
	C223.134750,53.733322 220.318436,50.951107 217.287689,49.721642 
	C216.381317,49.397408 215.962601,49.367802 215.543900,49.338196 
	C215.882690,49.737358 216.221481,50.136520 216.560272,50.535683 
	C225.525177,62.673313 225.525177,62.673313 226.423676,69.526833 
	C228.452255,69.934502 230.507736,70.440483 232.592926,70.739510 
	C234.531555,71.017525 236.501831,71.074928 239.343506,71.299393 
	C238.502075,75.976753 237.713348,80.361061 236.842697,85.200775 
	C226.673416,84.680779 217.018845,84.187096 207.364273,83.693420 
	C207.170410,83.337112 206.976547,82.980797 206.782700,82.624489 
	C209.658905,80.439270 212.535126,78.254044 215.833511,75.748085 
	C213.353760,72.176613 210.895798,68.636551 208.618851,65.357170 
	C205.058548,67.216286 201.765533,70.144318 198.378174,70.257858 
	C196.298523,70.327583 194.074448,66.089134 191.854034,63.719944 
	C199.331390,57.951061 205.918060,52.869354 212.528778,47.769089 
	C203.714890,40.814571 202.449829,52.477314 196.806839,53.740448 
	C194.417252,51.989975 191.802002,50.074196 188.593277,47.723675 
	C190.333633,45.556774 192.118652,43.334255 194.807205,39.986763 
	C186.095474,34.495495 177.602081,29.141851 168.261780,23.254375 
	C168.261780,27.440701 168.261780,30.179199 168.261780,32.945526 
	C173.957108,36.122528 179.782547,39.372116 185.986237,42.832687 
	C184.406326,45.724628 183.237076,48.386192 181.545303,50.658783 
	C181.004898,51.384720 178.825500,51.623859 177.827972,51.158932 
	C170.560440,47.771629 163.353989,44.240990 156.262512,40.501011 
	C155.164490,39.921917 154.029709,37.970104 154.147873,36.775352 
	C154.679138,31.404238 155.656326,26.077240 156.561646,20.152161 
	C154.555099,19.605778 152.456345,19.034288 149.978943,18.359694 
	C151.735214,29.936279 140.585739,28.737795 136.241180,34.218449 
	C135.826935,34.032116 135.412689,33.845787 134.998444,33.659458 
	C134.998444,23.085411 134.998444,12.511362 134.999222,1.468657 
	C138.692902,1.000000 142.385818,1.000000 146.539368,0.999999 
z"/>
<path fill="#D3AD68" opacity="1.000000" stroke="none" 
	d="
M56.046944,211.911392 
	C61.461414,215.538773 66.836037,219.227783 72.308418,222.765579 
	C74.766052,224.354416 77.419159,225.640869 80.416542,227.304901 
	C80.884193,225.139435 81.662170,223.416199 81.491989,221.792328 
	C81.324471,220.193863 80.610405,218.080826 79.409615,217.271317 
	C76.015602,214.983231 72.327179,213.081009 68.608604,211.338730 
	C64.428093,209.380005 64.325966,206.882141 66.916809,203.546906 
	C67.917435,202.258774 68.654053,200.765549 69.806374,198.883163 
	C73.550941,201.098373 77.273392,203.364517 81.060875,205.516190 
	C83.208992,206.736542 85.449791,207.797821 87.672920,208.881332 
	C95.610519,212.749969 95.698074,212.749191 94.958817,221.319626 
	C94.679703,224.555573 93.914558,227.749603 93.253105,231.659409 
	C95.218689,232.264877 97.407730,232.939209 100.021927,233.744492 
	C98.223511,221.819092 109.587273,223.543655 114.990555,218.745422 
	C114.990555,228.837402 115.076279,238.931274 114.853653,249.018341 
	C114.832153,249.992340 112.676926,251.905655 111.885406,251.727234 
	C101.211189,249.321060 90.386589,247.273300 80.032005,243.833878 
	C66.143661,239.220673 54.114578,231.044815 43.204231,221.325302 
	C42.407780,220.615784 42.495377,218.972290 42.012688,217.830353 
	C41.720703,217.139587 41.121593,216.578674 40.284866,215.560883 
	C36.176575,211.248749 32.443893,207.335144 28.711214,203.421539 
	C29.017124,203.092941 29.323034,202.764328 29.628944,202.435715 
	C33.115326,203.612839 36.601707,204.789963 40.088089,205.967087 
	C41.481030,205.732147 42.873974,205.497208 44.975090,205.121124 
	C49.803658,203.937820 53.112061,199.571060 58.069199,201.954895 
	C58.069199,201.954895 58.003296,201.995636 58.005714,202.338943 
	C56.992027,204.494553 55.891472,206.265915 54.986767,208.132233 
	C54.274952,209.600647 52.751148,211.488251 56.046944,211.911392 
z"/>
<path fill="#D3AD67" opacity="1.000000" stroke="none" 
	d="
M172.625351,197.702301 
	C161.966537,204.626541 161.911209,204.664307 154.869583,194.347397 
	C148.658905,185.247940 142.576599,176.060638 136.479904,166.884033 
	C135.859344,165.949982 135.529343,164.822876 134.998199,163.637360 
	C138.628738,162.166779 142.080856,160.768478 145.999542,159.181183 
	C151.719070,167.456284 157.494354,175.812027 163.283585,184.187973 
	C175.279953,179.992081 190.060989,163.365707 193.648560,147.518570 
	C186.241974,146.264191 186.241974,146.264191 183.151962,135.279556 
	C192.311188,135.279556 201.412277,135.279556 211.127319,135.279556 
	C207.835846,161.432617 194.873749,182.148254 172.625351,197.702301 
z"/>
<path fill="#D3AD67" opacity="1.000000" stroke="none" 
	d="
M99.698456,83.347847 
	C96.645432,78.637772 93.930435,74.133049 90.847633,69.895927 
	C90.085907,68.848991 87.585068,67.761559 86.802567,68.229454 
	C72.789444,76.608620 62.535126,88.079880 57.808628,105.015831 
	C60.281891,104.657143 62.243008,104.372734 64.793533,104.002838 
	C65.956352,107.720810 67.140701,111.507599 68.472656,115.766373 
	C58.982006,115.766373 50.382236,115.766373 40.473995,115.766373 
	C41.621906,110.803566 42.341713,106.062141 43.820847,101.570793 
	C51.378628,78.621780 65.486031,61.158375 87.331657,50.251900 
	C90.225899,48.806946 92.249046,48.400551 94.287659,51.695446 
	C101.368591,63.139961 108.711472,74.422218 115.904099,85.798187 
	C116.488197,86.721992 116.688255,87.888626 117.065651,88.939331 
	C113.997932,90.117195 111.231590,91.463379 108.310341,92.159599 
	C107.160011,92.433762 105.219414,91.627609 104.416039,90.664780 
	C102.648361,88.546265 101.375542,86.014847 99.698456,83.347847 
z"/>
<path fill="#D3AD67" opacity="1.000000" stroke="none" 
	d="
M128.956711,155.123917 
	C127.748985,156.310287 126.541260,157.496643 125.077393,158.181656 
	C124.671448,157.378403 124.441925,157.160446 124.132683,157.026428 
	C123.983498,156.141525 123.834305,155.256638 123.087067,154.082611 
	C121.304367,154.240738 120.119728,154.687988 118.935097,155.135254 
	C118.484451,154.827255 118.033813,154.519257 117.305237,153.791260 
	C118.119423,151.370636 119.211548,149.369995 120.697845,146.647263 
	C114.451523,149.269302 107.493523,143.000275 102.567413,131.812775 
	C100.589020,127.319717 102.113274,120.901443 105.444611,118.992767 
	C104.955627,118.028625 104.464836,117.064491 104.218147,116.579872 
	C106.610764,114.117996 109.864220,112.282257 110.513313,109.772858 
	C111.692596,105.213737 114.203171,106.652832 116.831329,107.123055 
	C118.043930,107.340004 119.246086,107.615356 121.641327,108.109276 
	C120.406921,105.721222 119.703766,104.360916 119.381905,102.957001 
	C122.110741,103.153198 124.458290,103.393005 127.798882,103.734245 
	C129.176651,103.256371 131.765793,102.358330 134.359863,101.458580 
	C135.217789,103.098022 135.970215,104.535843 136.898224,106.309181 
	C135.715393,106.742409 134.556091,107.167015 133.396790,107.591621 
	C133.766037,108.121262 134.135300,108.650902 134.504562,109.180542 
	C135.563812,109.419167 136.820633,110.144783 137.647064,109.809517 
	C140.723206,108.561569 142.654099,109.437096 144.183212,112.259926 
	C145.797989,115.240913 148.300735,115.456604 151.120255,113.957672 
	C151.539169,113.984734 151.958069,114.011780 152.634079,114.452194 
	C152.654495,115.294273 152.498367,116.016869 152.168915,116.107178 
	C147.941467,117.265961 146.861877,118.948082 149.282486,123.346725 
	C150.471359,125.507103 149.215805,129.299667 148.379257,132.152008 
	C148.025024,133.359848 145.254211,136.342484 144.998230,137.997757 
	C145.000000,138.000000 145.004395,138.003403 144.998169,138.377808 
	C144.298569,141.902100 143.120087,144.075348 139.339355,141.976776 
	C138.730240,141.638687 137.675049,142.014999 136.847809,142.174118 
	C132.536621,143.003357 131.912003,146.614243 130.617065,149.999481 
	C128.859116,149.354584 127.483490,148.709595 124.964317,147.528442 
	C124.689781,147.897064 123.712074,149.209854 122.582382,150.726715 
	C125.581772,151.281738 129.485535,150.194946 128.956711,155.123917 
M131.232712,107.850655 
	C131.421860,107.204971 131.611008,106.559288 131.800156,105.913605 
	C131.392776,105.799225 130.985413,105.684837 130.578033,105.570465 
	C130.609375,106.260895 130.640717,106.951332 131.232712,107.850655 
M125.482658,155.589661 
	C125.482658,155.589661 125.414963,155.476761 125.482658,155.589661 
M141.588654,114.517105 
	C141.588654,114.517105 141.476898,114.583984 141.588654,114.517105 
z"/>
<path fill="#D3AD67" opacity="1.000000" stroke="none" 
	d="
M96.397339,206.710602 
	C73.778503,197.776154 57.548840,182.749344 47.791023,160.327789 
	C61.260864,151.716797 74.495720,143.256012 87.544350,134.914276 
	C88.253090,135.379456 88.659698,135.492874 88.739899,135.721024 
	C92.370537,146.049698 92.380363,146.070374 83.225395,152.262711 
	C77.810905,155.925034 72.346794,159.513992 66.761902,163.231201 
	C75.269707,178.458344 86.992760,188.919540 103.347122,194.160782 
	C104.772415,186.545670 107.937492,184.095474 115.498489,184.410217 
	C115.498489,193.033951 115.498489,201.664490 115.498489,211.769684 
	C109.156197,210.118530 102.953415,208.503708 96.397339,206.710602 
z"/>
<path fill="#D3AD67" opacity="1.000000" stroke="none" 
	d="
M134.997131,52.110615 
	C134.731430,48.362030 134.465622,45.095688 134.199219,41.829369 
	C153.230438,36.302921 196.552856,67.421150 202.795227,90.832130 
	C189.579544,99.700821 176.456543,108.507309 162.996292,117.540123 
	C161.512589,113.305107 160.243210,109.681786 158.901123,105.850983 
	C167.284958,100.009819 175.596863,94.218758 184.175110,88.242134 
	C175.639725,73.056564 163.271759,63.061852 146.818436,57.788010 
	C144.899139,65.846672 143.215103,67.316780 134.997040,67.804108 
	C134.997040,62.720932 134.997040,57.656898 134.997131,52.110615 
z"/>
<path fill="#D4AE68" opacity="1.000000" stroke="none" 
	d="
M39.954205,205.674789 
	C36.601707,204.789963 33.115326,203.612839 29.628944,202.435715 
	C29.323034,202.764328 29.017124,203.092941 28.711214,203.421539 
	C32.443893,207.335144 36.176575,211.248749 39.953789,215.494232 
	C36.346001,212.954895 32.563900,210.229630 29.098360,207.148331 
	C27.467590,205.698395 26.445322,203.564056 25.043180,201.593506 
	C27.233700,196.467850 30.704285,201.100769 34.176197,200.826920 
	C30.415932,194.390060 23.808475,189.787811 24.397224,181.266296 
	C20.338686,180.506226 15.900677,179.675110 10.980064,178.753601 
	C12.062144,174.126343 13.081293,169.768204 14.139945,165.241135 
	C24.207159,165.929138 33.845867,166.587860 45.284981,167.369629 
	C41.208702,170.365311 38.242340,172.545303 34.872910,175.021515 
	C37.100155,178.467834 39.387318,182.006897 42.000980,186.051147 
	C44.393162,184.484909 46.657387,183.314682 48.537090,181.697495 
	C51.252178,179.361572 52.989002,179.451187 54.574760,182.891113 
	C55.232998,184.319016 56.766537,185.343430 58.650005,187.347015 
	C53.154850,191.382965 47.643745,195.083282 42.607121,199.344437 
	C41.122871,200.600159 36.230167,201.382889 39.954205,205.674789 
z"/>
<path fill="#D4AE68" opacity="1.000000" stroke="none" 
	d="
M140.434952,225.465576 
	C138.103516,222.272995 136.037125,218.837540 133.382736,215.940887 
	C128.588898,210.709579 130.135941,204.594376 131.330978,197.851669 
	C142.802414,213.359970 154.273849,228.868271 166.262161,245.075333 
	C162.735077,245.798111 159.837402,246.540390 156.893951,246.966644 
	C148.771317,248.142822 140.634949,249.231064 132.488571,250.227798 
	C131.458649,250.353790 129.402634,249.750427 129.394287,249.442352 
	C129.213699,242.783783 129.256897,236.119141 129.256897,229.455673 
	C129.673004,229.386292 130.089127,229.316910 130.505234,229.247528 
	C131.699753,230.497009 132.894257,231.746506 134.736649,233.673676 
	C133.972015,229.256119 133.794876,225.630508 139.681931,226.295868 
	C140.622452,226.604706 141.042007,226.635864 141.461578,226.667038 
	C141.119370,226.266556 140.777161,225.866058 140.434952,225.465576 
M145.023987,231.530914 
	C144.508606,230.933807 143.993210,230.336685 142.976852,229.159164 
	C144.098831,235.392487 140.244644,235.242722 135.443237,234.967468 
	C140.301147,237.651093 144.159958,239.188843 148.913467,236.871262 
	C147.582703,234.970718 146.551163,233.497498 145.023987,231.530914 
z"/>
<path fill="#D4AD68" opacity="1.000000" stroke="none" 
	d="
M107.800087,3.982580 
	C113.239052,3.193524 118.226601,2.415082 123.658203,1.567333 
	C123.658203,9.034316 123.658203,15.760477 123.658203,23.320930 
	C122.127335,22.029787 121.017822,21.094013 119.447456,19.769558 
	C119.035210,24.247087 118.405006,28.658945 111.117493,24.628738 
	C117.609604,34.283840 126.674408,41.507481 121.797493,54.870319 
	C110.131660,38.583477 98.854797,22.839676 87.106606,6.437852 
	C94.697701,5.521066 101.023186,4.757130 107.800087,3.982580 
M108.462341,20.934118 
	C110.951271,19.262039 113.440201,17.589960 115.807419,15.999650 
	C112.557320,15.261624 108.816612,12.287533 104.466995,15.490768 
	C105.728561,17.273392 106.848106,18.855330 108.462341,20.934118 
z"/>
<path fill="#D4AD68" opacity="1.000000" stroke="none" 
	d="
M227.004898,116.833244 
	C226.354660,115.770050 225.704407,114.706856 225.260040,113.175529 
	C225.265656,112.492874 225.065414,112.278358 224.865189,112.063843 
	C221.977051,113.845711 218.550461,115.122353 216.309052,117.511078 
	C211.103165,123.059158 204.865219,122.179665 198.554184,121.771828 
	C198.276459,121.341888 197.998749,120.911957 197.721024,120.482025 
	C213.153076,108.981613 228.585144,97.481201 244.603775,85.543648 
	C246.562668,98.268799 248.412888,110.288017 250.324600,122.706627 
	C242.825546,122.706627 236.106354,122.706627 227.985962,122.706627 
	C230.048508,120.532944 231.359039,119.151802 232.835541,117.149155 
	C233.286285,116.018951 233.571075,115.510262 234.064102,115.253662 
	C239.042633,112.035049 236.378845,107.467964 236.970291,102.169548 
	C233.671982,104.772087 231.469528,106.509949 230.336182,107.404228 
	C232.101120,109.597733 233.468750,111.297462 234.466278,113.009178 
	C231.732407,114.291862 229.368652,115.562553 227.004898,116.833244 
M227.718460,112.106010 
	C227.813873,112.071861 227.909302,112.037720 228.441238,111.785706 
	C228.713562,111.586212 228.900787,111.325584 229.484039,110.976616 
	C229.759216,110.857994 230.034378,110.739372 230.309555,110.620750 
	C230.221924,110.497200 230.134293,110.373642 230.046661,110.250092 
	C229.696518,110.499107 229.346375,110.748131 228.559250,111.214142 
	C228.286728,111.413315 228.099091,111.673676 227.718460,112.106010 
z"/>
<path fill="#D4AD68" opacity="1.000000" stroke="none" 
	d="
M25.845295,136.998444 
	C26.689281,137.366714 27.839508,138.280991 28.324396,138.009033 
	C30.453871,136.814651 32.677135,135.552094 34.345718,133.814285 
	C39.969959,127.956718 46.555401,128.333832 54.190754,130.507050 
	C38.291367,141.857147 22.768373,152.938538 6.170956,164.786942 
	C4.516808,152.260788 2.972505,140.566467 1.362705,128.376160 
	C9.008482,128.376160 15.740922,128.376160 23.461308,128.376160 
	C21.951691,129.972870 20.850193,131.137924 19.875441,132.656555 
	C20.002186,133.010162 20.038301,132.986938 19.759434,132.798828 
	C19.007061,133.034485 18.533556,133.458237 17.925856,134.136597 
	C17.485310,134.614777 17.178959,134.838348 16.539604,135.213394 
	C15.240422,139.244736 14.274245,143.124588 13.308067,147.004440 
	C13.783762,147.138184 14.259456,147.271942 14.735150,147.405685 
	C17.028929,145.906250 19.322708,144.406815 21.792252,142.792480 
	C20.672998,142.115982 19.783323,141.578247 19.158163,140.842743 
	C18.995434,134.963348 19.952072,134.420212 25.845295,136.998444 
z"/>
<path fill="#D4AE68" opacity="1.000000" stroke="none" 
	d="
M119.000610,103.000610 
	C119.703766,104.360916 120.406921,105.721222 121.641327,108.109276 
	C119.246086,107.615356 118.043930,107.340004 116.831329,107.123055 
	C114.203171,106.652832 111.692596,105.213737 110.513313,109.772858 
	C109.864220,112.282257 106.610764,114.117996 104.218147,116.579872 
	C104.464836,117.064491 104.955627,118.028625 105.444611,118.992767 
	C102.113274,120.901443 100.589020,127.319717 102.567413,131.812775 
	C107.493523,143.000275 114.451523,149.269302 120.697845,146.647263 
	C119.211548,149.369995 118.119423,151.370636 117.032623,153.751740 
	C116.298981,155.384384 115.560020,156.636597 114.821060,157.888794 
	C114.455040,157.527863 114.089027,157.166916 113.723015,156.805984 
	C113.811432,155.085007 113.899849,153.364029 114.018135,151.061615 
	C111.986893,152.634293 110.419304,153.847992 108.204620,155.562698 
	C108.574059,153.050323 108.799843,151.514862 109.083420,149.586411 
	C107.463242,150.165512 106.116013,150.647049 103.901520,151.438583 
	C104.594872,149.197128 105.029915,147.790726 105.554863,146.093719 
	C103.663368,146.380783 101.995689,146.633865 99.481865,147.015381 
	C100.821182,144.997223 101.677910,143.706253 102.789307,142.031540 
	C100.749260,142.337021 99.081398,142.586761 96.620003,142.955338 
	C97.805031,141.099686 98.563927,139.911316 99.536423,138.388458 
	C98.031425,138.110992 96.608803,137.848709 94.368141,137.435623 
	C96.082962,135.859665 97.211792,134.822266 98.757988,133.401291 
	C97.023598,133.103043 95.599663,132.858200 93.461929,132.490601 
	C94.959488,130.794556 95.995033,129.621750 97.040817,128.437363 
	C95.904221,127.836449 94.492073,127.089867 92.412895,125.990623 
	C94.458496,124.955055 95.847153,124.252052 97.336311,123.498177 
	C96.329788,122.757858 95.234543,121.952286 93.423294,120.620071 
	C95.352524,119.765068 96.726723,119.156052 98.100998,118.546997 
	C97.156754,117.510818 96.055382,116.302216 94.475319,114.568314 
	C96.536057,114.216240 97.909523,113.981583 99.569473,113.697983 
	C98.656570,112.332176 97.809196,111.064407 96.420067,108.986122 
	C98.972198,109.387230 100.617744,109.645859 102.861801,109.998558 
	C101.678459,108.330750 100.810562,107.107529 99.319267,105.005692 
	C101.950386,105.401810 103.578308,105.646896 105.742271,105.972694 
	C105.082130,104.337189 104.569939,103.068237 103.660759,100.815742 
	C105.935562,101.645401 107.467796,102.204239 109.275200,102.863434 
	C109.275200,101.289284 109.275200,99.790764 109.275200,97.483215 
	C110.801315,98.713531 111.764183,99.489769 112.937424,100.958496 
	C115.098366,102.100456 117.048912,102.549927 118.999733,102.999695 
	C119.000000,103.000000 119.000610,103.000610 119.000610,103.000610 
z"/>
<path fill="#D4AE68" opacity="1.000000" stroke="none" 
	d="
M69.042702,93.498749 
	C73.314034,86.613174 78.127449,80.784660 84.764313,76.411758 
	C87.794357,74.415321 89.181717,75.416832 90.952629,77.447556 
	C93.163391,79.982635 91.534599,81.202454 89.333038,82.317108 
	C88.459366,82.759445 87.713631,83.454460 86.885712,84.051712 
	C90.589035,88.237686 93.653160,92.174065 97.213257,95.594185 
	C100.881340,99.118057 97.679543,100.713921 95.739204,102.759171 
	C93.220642,105.413902 91.639496,103.313637 90.121666,101.500923 
	C88.884178,100.023003 87.783615,98.430428 85.127289,94.903824 
	C83.712074,97.367012 82.997360,99.378036 81.643250,100.764610 
	C80.111404,102.333168 76.974670,104.798355 76.327957,104.340775 
	C73.530632,102.361504 71.296227,99.531883 69.079811,96.828934 
	C68.590813,96.232590 69.010063,94.891479 69.042702,93.498749 
z"/>
<path fill="#D4AE68" opacity="1.000000" stroke="none" 
	d="
M80.245178,160.770905 
	C83.041359,164.413361 85.487679,164.844467 88.371468,161.225739 
	C89.774513,159.465118 91.750755,158.119705 93.595963,156.760742 
	C99.300079,152.559723 99.324051,152.592270 104.092178,158.590698 
	C101.561783,161.069336 99.004257,163.574554 96.380325,166.144836 
	C97.995796,167.664246 99.385567,169.199036 100.999435,170.443176 
	C104.670250,173.273041 104.831680,176.271378 101.848640,179.681091 
	C98.535591,183.468018 94.956841,184.196915 91.331970,181.864594 
	C84.177223,177.261063 78.087502,171.660675 73.922913,163.444748 
	C75.933838,162.476395 77.955788,161.502747 80.245178,160.770905 
z"/>
<path fill="#D4AE68" opacity="1.000000" stroke="none" 
	d="
M154.332275,85.265640 
	C152.060318,83.351738 149.934143,81.761726 148.087204,79.895378 
	C145.271362,77.049934 147.953674,70.998352 153.084335,69.149864 
	C154.697510,68.568672 157.376297,68.420509 158.474564,69.356461 
	C164.325409,74.342590 170.197662,79.403641 175.331787,85.097656 
	C179.134460,89.315002 173.058212,89.505569 171.617783,91.902168 
	C169.939240,90.346535 168.382599,88.903900 166.679657,87.325661 
	C163.334045,90.170975 159.730576,92.749611 156.741287,95.909286 
	C153.502380,99.332802 151.027390,100.317993 148.527939,95.409981 
	C148.205795,94.777367 147.419159,94.381302 146.747208,93.786743 
	C149.517365,90.852592 152.060226,88.159187 154.332275,85.265640 
z"/>
<path fill="#D4AE68" opacity="1.000000" stroke="none" 
	d="
M164.362091,176.671982 
	C162.426270,175.357773 160.799591,174.219666 159.087158,173.021576 
	C161.709778,170.582794 163.251266,169.149368 165.099197,167.430984 
	C161.598984,163.645432 158.405685,159.850769 154.838089,156.448608 
	C152.293579,154.022079 152.976379,152.464188 155.088257,150.297165 
	C157.350266,147.976105 159.242035,147.046127 161.561401,150.041840 
	C162.852844,151.709885 164.249771,153.296295 165.992859,155.393082 
	C167.369598,153.693283 168.408234,152.048813 169.793671,150.784348 
	C171.925262,148.838882 173.483688,145.097733 177.514801,148.002823 
	C182.789261,151.803925 184.658966,155.921158 181.939499,159.927261 
	C177.352844,166.683960 172.565414,173.397110 164.362091,176.671982 
z"/>
<path fill="#D4AE68" opacity="1.000000" stroke="none" 
	d="
M102.302612,56.652428 
	C99.142685,51.818779 96.468025,47.068287 93.146362,42.824162 
	C89.860626,38.625931 89.336990,34.412811 90.667542,29.428137 
	C91.558151,26.091639 91.646317,22.540945 92.705269,19.104816 
	C95.540276,23.736891 100.901054,27.353922 97.236275,33.801357 
	C96.746796,34.662514 97.910675,36.463463 98.478188,38.409798 
	C100.045563,36.983810 101.165039,35.965321 102.810341,34.468441 
	C106.767776,40.066601 110.677879,45.433826 114.342583,50.963676 
	C114.874702,51.766621 114.599144,53.546318 114.066010,54.532860 
	C112.304764,57.791965 110.254135,60.894684 107.957962,64.638985 
	C105.860580,61.684704 104.182518,59.321053 102.302612,56.652428 
z"/>
<path fill="#D4AE68" opacity="1.000000" stroke="none" 
	d="
M136.964554,198.028641 
	C138.483017,196.339630 140.135452,194.749557 141.478592,192.931046 
	C142.602554,191.409317 143.365005,189.620575 144.681717,187.236298 
	C150.963837,196.353775 156.837708,204.744690 162.505707,213.272400 
	C163.224487,214.353851 163.066879,216.165695 162.968491,217.615601 
	C162.628021,222.633255 162.134293,227.640518 161.665070,233.041122 
	C153.906021,228.408813 155.447510,220.896042 155.760895,213.228043 
	C153.761108,214.409195 153.026382,214.714127 152.462875,215.212616 
	C151.909836,215.701828 151.530853,216.387817 150.299652,218.009079 
	C145.733261,211.171310 141.550064,204.907318 137.180511,198.320160 
	C136.994156,197.996994 136.964554,198.028641 136.964554,198.028641 
z"/>
<path fill="#D4AE68" opacity="1.000000" stroke="none" 
	d="
M27.829905,161.088257 
	C24.618799,160.779480 21.840864,160.525696 18.829746,160.250595 
	C22.727942,154.575348 26.594629,153.123138 31.943680,154.345184 
	C33.729027,154.753067 35.801666,153.903442 37.742973,153.628662 
	C37.720505,153.142975 37.698036,152.657288 37.675564,152.171600 
	C36.493809,151.495209 35.312054,150.818817 33.592941,149.834854 
	C39.378544,145.504349 44.694992,141.458420 50.115936,137.557724 
	C50.743530,137.106125 52.138275,137.112961 52.858795,137.500122 
	C56.598103,139.509338 60.234024,141.710968 64.413460,144.140594 
	C55.472637,150.063522 47.394257,155.954041 38.742889,160.827377 
	C36.046047,162.346527 31.799955,161.115356 27.829905,161.088257 
z"/>
<path fill="#D4AE68" opacity="1.000000" stroke="none" 
	d="
M212.750687,104.755608 
	C211.173019,105.990509 209.833054,106.939911 208.543518,107.953476 
	C199.071411,115.398575 197.920197,115.372467 187.623734,106.936775 
	C191.774506,103.912079 195.759628,100.948387 199.808655,98.074722 
	C203.681854,95.325821 207.352219,92.059174 211.621979,90.178520 
	C214.722137,88.813057 218.659149,89.043854 222.213623,89.105446 
	C225.301544,89.158966 228.376282,89.973618 231.428024,90.447418 
	C230.080994,94.570709 224.423996,97.720741 220.400772,96.871658 
	C218.194824,96.406097 215.809952,96.788414 213.505753,96.788414 
	C213.478653,97.311592 213.451553,97.834763 213.424469,98.357941 
	C214.562134,99.170219 215.699799,99.982491 217.242294,101.083809 
	C215.694397,102.333672 214.353058,103.416740 212.750687,104.755608 
z"/>
<path fill="#D4AE68" opacity="1.000000" stroke="none" 
	d="
M144.996475,137.995514 
	C145.254211,136.342484 148.025024,133.359848 148.379257,132.152008 
	C149.215805,129.299667 150.471359,125.507103 149.282486,123.346725 
	C146.861877,118.948082 147.941467,117.265961 152.168915,116.107178 
	C152.498367,116.016869 152.654495,115.294273 152.942841,114.513748 
	C154.135849,114.161942 155.277222,114.161942 156.879959,114.161942 
	C155.602676,115.725021 154.587189,116.967743 153.281479,118.565620 
	C155.012512,118.886696 156.468475,119.156738 159.488220,119.716843 
	C156.784714,121.458534 155.235687,122.456482 153.530136,123.555267 
	C155.289429,124.227684 157.038788,124.896309 159.519531,125.844467 
	C157.482376,126.855629 155.998871,127.591988 154.291214,128.439590 
	C155.597656,129.630539 156.813309,130.738724 158.631729,132.396393 
	C156.468857,132.777313 155.102814,133.017914 153.383575,133.320709 
	C154.490891,134.781235 155.515549,136.132721 156.788071,137.811157 
	C154.794250,137.946228 153.200882,138.054184 151.210815,138.188995 
	C152.269760,139.605240 153.124054,140.747787 154.368683,142.412369 
	C152.852783,142.653442 151.835632,142.815201 150.310089,142.699951 
	C149.382278,142.394821 148.962830,142.366684 148.543381,142.338531 
	C148.880035,142.737762 149.216690,143.137009 149.553345,143.536240 
	C149.996643,144.759521 150.439957,145.982803 151.114197,147.843307 
	C149.243683,147.341431 147.816254,146.958450 146.101059,146.498245 
	C146.372147,148.221130 146.633347,149.881317 147.003159,152.231644 
	C145.173569,151.322021 143.965210,150.721237 142.359741,149.923050 
	C142.359741,151.776230 142.359741,153.301071 142.359741,155.056381 
	C140.600357,154.062347 139.075485,153.200806 137.761307,152.458313 
	C136.100876,153.258774 138.532471,156.681442 134.902908,155.212875 
	C134.465073,154.417404 134.169434,154.225128 133.873810,154.032852 
	C133.551819,153.984070 133.300735,153.824051 133.030746,153.005890 
	C132.294159,151.639542 131.647385,150.820084 131.000305,150.000305 
	C131.000000,150.000000 130.999390,149.999390 130.999390,149.999390 
	C131.912003,146.614243 132.536621,143.003357 136.847809,142.174118 
	C137.675049,142.014999 138.730240,141.638687 139.339355,141.976776 
	C143.120087,144.075348 144.298569,141.902100 145.136230,138.322388 
	C145.185837,137.926895 145.091156,137.961197 144.996475,137.995514 
z"/>
<path fill="#D4AE68" opacity="1.000000" stroke="none" 
	d="
M151.206970,113.632828 
	C148.300735,115.456604 145.797989,115.240913 144.183212,112.259926 
	C142.654099,109.437096 140.723206,108.561569 137.647064,109.809517 
	C136.820633,110.144783 135.563812,109.419167 134.504562,109.180542 
	C134.135300,108.650902 133.766037,108.121262 133.396790,107.591621 
	C134.556091,107.167015 135.715393,106.742409 136.898224,106.309181 
	C135.970215,104.535843 135.217789,103.098022 134.359863,101.458580 
	C131.765793,102.358330 129.176651,103.256371 127.798882,103.734245 
	C124.458290,103.393005 122.110741,103.153198 119.381897,102.957001 
	C119.000610,103.000610 119.000000,103.000000 119.118240,102.712723 
	C118.831467,101.237099 118.426460,100.048752 118.021446,98.860413 
	C118.321632,98.716202 118.621811,98.571991 119.273422,98.000687 
	C120.101227,96.672951 120.577583,95.772301 121.053955,94.871658 
	C121.595535,95.761604 122.137115,96.651550 122.807114,97.752518 
	C123.794022,96.151291 124.710449,94.664413 126.014130,92.549232 
	C126.646866,94.240189 127.092590,95.431358 127.664619,96.960075 
	C128.859711,95.921509 129.963531,94.962273 131.501968,93.625343 
	C131.825699,95.587914 132.050705,96.952042 132.357010,98.808929 
	C133.153229,98.164940 133.733292,97.695778 134.886322,97.296120 
	C136.015854,98.569458 136.572403,99.773300 137.128967,100.977127 
	C138.601990,99.722900 140.075012,98.468674 142.098785,96.745506 
	C142.098785,98.942200 142.098785,100.567070 142.098785,102.573425 
	C143.679779,101.759041 145.030777,101.063133 147.164673,99.963943 
	C146.519211,102.267372 146.052078,103.934464 145.491196,105.936043 
	C147.343597,105.257042 148.900070,104.686508 151.535202,103.720596 
	C150.200592,106.336365 149.361664,107.980644 148.360397,109.943092 
	C150.222473,109.630821 151.876617,109.353424 155.004303,108.828903 
	C153.206589,110.998940 152.250137,112.153465 151.206970,113.632828 
z"/>
<path fill="#D5AF68" opacity="1.000000" stroke="none" 
	d="
M61.586159,139.311844 
	C58.510445,137.881790 55.771019,136.636261 53.031590,135.390747 
	C53.106133,134.942688 53.180676,134.494614 53.255219,134.046555 
	C54.210575,133.732208 55.598358,132.848206 56.053082,133.193390 
	C59.791084,136.030853 62.540558,134.045792 65.551903,131.823776 
	C69.043159,129.247665 76.729866,132.903061 77.778366,137.785782 
	C74.649117,137.218414 71.639862,136.672821 68.630608,136.127213 
	C68.555016,136.542664 68.479431,136.958115 68.403839,137.373566 
	C69.550484,138.767441 70.697121,140.161331 72.200775,141.989197 
	C67.458664,144.178253 64.942703,140.850464 61.586159,139.311844 
z"/>
<path fill="#D5AF68" opacity="1.000000" stroke="none" 
	d="
M137.010284,197.982574 
	C129.035873,196.851837 137.109985,193.043182 135.732956,190.818481 
	C130.294800,184.025452 130.624115,178.550140 138.063049,173.233246 
	C137.562881,175.906754 137.197464,177.553528 136.964783,179.218857 
	C136.825363,180.216660 136.893448,181.243454 136.868256,182.257233 
	C137.837936,182.075562 138.807068,181.890793 139.777466,181.713013 
	C140.898590,181.507629 142.020828,181.308395 143.142593,181.106491 
	C143.113724,182.220840 143.411499,183.476898 143.000031,184.425232 
	C141.118484,188.761719 139.038086,193.011948 136.996841,197.660889 
	C136.964554,198.028641 136.994156,197.996994 137.010284,197.982574 
z"/>
<path fill="#D5AF68" opacity="1.000000" stroke="none" 
	d="
M112.998322,60.981133 
	C114.473686,58.276817 115.846222,55.934677 117.218758,53.592533 
	C117.875984,53.889679 118.533218,54.186821 119.190453,54.483967 
	C118.454979,56.871658 117.719505,59.259350 117.052422,61.425003 
	C118.509926,64.028625 122.066460,67.812462 121.255669,69.508507 
	C119.884453,72.376900 119.564293,77.422455 114.080765,78.120644 
	C114.840179,74.710365 115.471619,71.874763 116.103058,69.039169 
	C115.616859,68.859642 115.130661,68.680107 114.644455,68.500580 
	C112.907356,70.412857 111.528358,73.618362 108.182838,70.215836 
	C109.721725,67.318573 111.308609,64.330940 112.998322,60.981133 
z"/>
<path fill="#D5AF68" opacity="1.000000" stroke="none" 
	d="
M181.965012,114.966660 
	C181.444336,112.817696 180.581757,110.790977 179.719162,108.764259 
	C180.106323,108.390175 180.493484,108.016090 180.880646,107.642014 
	C186.720612,110.441139 192.560577,113.240265 198.400543,116.039383 
	C198.300949,116.777451 198.201355,117.515518 198.101761,118.253586 
	C192.507385,115.896873 187.590332,116.066048 183.928528,120.916298 
	C180.030472,119.339111 175.379562,119.014816 172.253937,113.889244 
	C176.072754,114.378220 178.847931,114.733566 181.965012,114.966660 
z"/>
<path fill="#D5AF68" opacity="1.000000" stroke="none" 
	d="
M17.984364,192.196960 
	C16.929594,190.631424 15.546697,189.621185 14.936430,188.263626 
	C14.323997,186.901260 14.100943,185.093704 14.468482,183.679031 
	C14.642880,183.007751 16.965126,182.130341 17.652775,182.518448 
	C19.009689,183.284271 20.473381,184.724152 20.832092,186.151810 
	C21.188454,187.570099 20.585518,188.791092 22.701002,189.502747 
	C23.735588,189.850800 24.684877,192.075775 24.644180,193.420074 
	C24.617519,194.300720 22.407532,196.031250 21.773239,195.792557 
	C20.319260,195.245377 19.231468,193.725128 17.984364,192.196960 
z"/>
<path fill="#D5AF68" opacity="1.000000" stroke="none" 
	d="
M231.970978,61.030937 
	C235.175827,60.848652 237.265091,62.291832 236.785233,65.540359 
	C236.639404,66.527557 234.300385,67.481712 232.816101,67.854187 
	C232.103012,68.033142 230.251999,66.772255 230.285690,66.252197 
	C230.386780,64.693146 231.162582,63.177837 231.837265,61.323532 
	C231.999496,61.001606 231.970978,61.030937 231.970978,61.030937 
z"/>
<path fill="#D4AE68" opacity="1.000000" stroke="none" 
	d="
M62.961952,19.940884 
	C63.144039,23.075418 61.799797,25.273714 58.569275,24.759714 
	C57.526646,24.593824 55.888428,21.730185 56.211803,20.572437 
	C57.398750,16.322908 59.947601,17.611542 62.668411,19.868042 
	C62.994411,19.982309 62.961952,19.940884 62.961952,19.940884 
z"/>
<path fill="#D5AF68" opacity="1.000000" stroke="none" 
	d="
M63.011963,20.001915 
	C63.729820,18.044041 64.430138,16.066559 65.130447,14.089075 
	C66.447563,14.591836 68.079506,14.786834 68.974426,15.702309 
	C69.602524,16.344830 69.577232,18.872461 69.239357,19.003826 
	C67.486237,19.685438 65.538872,19.867445 63.310570,20.082199 
	C62.961952,19.940884 62.994411,19.982309 63.011963,20.001915 
z"/>
<path fill="#D5AF68" opacity="1.000000" stroke="none" 
	d="
M191.042221,232.054581 
	C191.036316,227.569077 193.150253,224.851593 195.530029,226.412903 
	C196.683807,227.169876 197.793167,229.447739 197.491745,230.689804 
	C196.675034,234.055206 194.106689,233.403244 191.353668,232.136017 
	C191.010712,232.011459 191.042221,232.054581 191.042221,232.054581 
z"/>
<path fill="#D4AE68" opacity="1.000000" stroke="none" 
	d="
M190.991913,231.992508 
	C191.206467,235.043655 190.747055,237.734970 186.776932,237.201202 
	C185.780579,237.067245 184.311371,235.679840 184.220459,234.754456 
	C184.098999,233.517883 184.853897,231.315704 185.693039,231.064026 
	C187.057632,230.654770 188.795547,231.490295 190.709061,231.927521 
	C191.042221,232.054581 191.010712,232.011459 190.991913,231.992508 
z"/>
<path fill="#D5AF68" opacity="1.000000" stroke="none" 
	d="
M232.014374,60.987640 
	C230.096497,60.447239 228.012466,60.181873 226.337067,59.211208 
	C225.917130,58.967903 226.382629,56.077774 227.239731,55.114956 
	C227.885071,54.390038 230.823074,54.385765 230.982986,54.777748 
	C231.672043,56.466709 231.712830,58.420151 231.980316,60.654114 
	C231.970978,61.030937 231.999496,61.001606 232.014374,60.987640 
z"/>
<path fill="#D4AE68" opacity="1.000000" stroke="none" 
	d="
M25.903191,136.613983 
	C19.952072,134.420212 18.995434,134.963348 18.809345,140.808701 
	C17.754879,139.002243 17.313744,137.032074 16.872608,135.061905 
	C17.178959,134.838348 17.485310,134.614777 18.231239,134.167633 
	C19.126646,133.625000 19.582474,133.305969 20.038301,132.986938 
	C20.038301,132.986938 20.002186,133.010162 19.986458,133.024826 
	C22.498188,133.106323 25.443457,132.388596 25.903191,136.613983 
z"/>
<path fill="#D4AE68" opacity="1.000000" stroke="none" 
	d="
M57.922192,201.643661 
	C53.112061,199.571060 49.803658,203.937820 45.306076,204.972961 
	C47.223656,202.888596 49.375324,200.618439 51.849140,198.782303 
	C54.996651,196.446136 55.952400,200.088730 57.922192,201.643661 
z"/>
<path fill="#D4AE68" opacity="1.000000" stroke="none" 
	d="
M128.990997,155.344833 
	C129.485535,150.194946 125.581772,151.281738 122.582382,150.726715 
	C123.712074,149.209854 124.689781,147.897064 124.964317,147.528442 
	C127.483490,148.709595 128.859116,149.354584 130.617065,149.999481 
	C130.999390,149.999390 131.000000,150.000000 131.000061,150.405457 
	C130.384537,152.538666 129.768921,154.266403 129.153320,155.994156 
	C129.153320,155.994156 129.025299,155.565750 128.990997,155.344833 
z"/>
<path fill="#D3AD67" opacity="1.000000" stroke="none" 
	d="
M117.934151,98.638062 
	C118.426460,100.048752 118.831467,101.237099 119.117966,102.712418 
	C117.048912,102.549927 115.098366,102.100456 113.091888,101.264023 
	C113.518906,99.164444 114.001839,97.451828 114.562325,95.464180 
	C115.227013,96.023857 116.008606,96.681961 116.596359,97.706764 
	C115.944061,99.025368 115.485611,99.977280 115.027161,100.929192 
	C115.452042,101.054573 115.876915,101.179962 116.301796,101.305351 
	C116.552208,100.175278 116.802620,99.045212 117.053032,97.915138 
	C117.383560,97.977493 117.648163,98.144348 117.934151,98.638062 
z"/>
<path fill="#D4AE68" opacity="1.000000" stroke="none" 
	d="
M56.044071,211.561127 
	C52.751148,211.488251 54.274952,209.600647 54.986767,208.132233 
	C55.891472,206.265915 56.992027,204.494553 58.026817,202.306458 
	C58.977707,202.757034 59.909912,203.583389 60.525902,204.129440 
	C58.899551,206.697479 57.470375,208.954178 56.044071,211.561127 
z"/>
<path fill="#D5AF68" opacity="1.000000" stroke="none" 
	d="
M227.318710,116.994461 
	C229.368652,115.562553 231.732407,114.291862 234.446014,113.295166 
	C234.482529,114.046638 234.169205,114.524101 233.855865,115.001564 
	C233.571075,115.510262 233.286285,116.018951 232.973816,116.830627 
	C231.174927,117.140961 229.403732,117.148315 227.318710,116.994461 
z"/>
<path fill="#D3AD67" opacity="1.000000" stroke="none" 
	d="
M129.216980,156.339691 
	C129.768921,154.266403 130.384537,152.538666 131.000366,150.405762 
	C131.647385,150.820084 132.294159,151.639542 132.951447,152.791351 
	C132.457382,154.965897 131.952835,156.808121 131.302582,159.182297 
	C130.500595,158.191849 129.890625,157.438522 129.216980,156.339691 
z"/>
<path fill="#D4AE68" opacity="1.000000" stroke="none" 
	d="
M118.978371,155.355026 
	C120.119728,154.687988 121.304367,154.240738 122.790291,153.921234 
	C122.598999,154.971222 122.106422,155.893494 121.188622,156.716003 
	C120.227821,156.411484 119.692245,156.206726 119.156670,156.001968 
	C119.156670,156.001968 119.021645,155.574799 118.978371,155.355026 
z"/>
<path fill="#D3AD67" opacity="1.000000" stroke="none" 
	d="
M137.080231,100.572617 
	C136.572403,99.773300 136.015854,98.569458 135.180832,97.155487 
	C135.162170,96.405510 135.421967,95.865677 135.681763,95.325844 
	C136.101120,95.647934 136.830933,95.926483 136.883331,96.300034 
	C137.061615,97.571312 137.000931,98.876106 137.080231,100.572617 
z"/>
<path fill="#D3AD67" opacity="1.000000" stroke="none" 
	d="
M120.844864,94.594528 
	C120.577583,95.772301 120.101227,96.672951 119.390213,97.763763 
	C119.648964,96.741760 120.142372,95.529587 120.844864,94.594528 
z"/>
<path fill="#D3AD67" opacity="1.000000" stroke="none" 
	d="
M119.096970,156.326019 
	C119.692245,156.206726 120.227821,156.411484 120.912598,156.871796 
	C120.546448,157.614151 120.031097,158.100967 119.515747,158.587784 
	C119.356255,157.941879 119.196762,157.295975 119.096970,156.326019 
z"/>
<path fill="#D4AE68" opacity="1.000000" stroke="none" 
	d="
M124.139046,157.284073 
	C124.441925,157.160446 124.671448,157.378403 124.887756,157.913010 
	C124.684624,157.944382 124.415016,157.743057 124.139046,157.284073 
z"/>
<path fill="#D5AF68" opacity="1.000000" stroke="none" 
	d="
M224.955200,112.283508 
	C225.065414,112.278358 225.265656,112.492874 225.335464,112.828827 
	C225.205032,112.950256 225.045197,112.503181 224.955200,112.283508 
z"/>
<path fill="#D3AD67" opacity="1.000000" stroke="none" 
	d="
M133.987396,154.275452 
	C134.169434,154.225128 134.465073,154.417404 134.867706,154.857559 
	C134.683472,154.909653 134.392227,154.713837 133.987396,154.275452 
z"/>
<path fill="#FFFFFF" opacity="1.000000" stroke="none" 
	d="
M201.614441,216.690491 
	C201.861465,216.222366 202.259705,215.882172 202.657928,215.541977 
	C202.629105,215.960785 202.600266,216.379593 202.324432,216.930603 
	C202.077438,217.062820 201.765656,216.818420 201.614441,216.690491 
z"/>
<path fill="#FFFFFF" opacity="1.000000" stroke="none" 
	d="
M51.385239,34.312202 
	C51.137917,34.781055 50.738537,35.119549 50.339161,35.458042 
	C50.367908,35.038647 50.396656,34.619251 50.672012,34.066841 
	C50.918613,33.933826 51.233181,34.181835 51.385239,34.312202 
z"/>
<path fill="#FFFFFF" opacity="1.000000" stroke="none" 
	d="
M216.689331,50.384411 
	C216.221481,50.136520 215.882690,49.737358 215.543900,49.338196 
	C215.962601,49.367802 216.381317,49.397408 216.932220,49.673851 
	C217.064438,49.920681 216.818405,50.233139 216.689331,50.384411 
z"/>
<path fill="#D4AE68" opacity="1.000000" stroke="none" 
	d="
M130.952393,107.746208 
	C130.640717,106.951332 130.609375,106.260895 130.578033,105.570465 
	C130.985413,105.684837 131.392776,105.799225 131.800156,105.913605 
	C131.611008,106.559288 131.421860,107.204971 130.952393,107.746208 
z"/>
<path fill="#D4AE68" opacity="1.000000" stroke="none" 
	d="
M125.448807,155.533203 
	C125.414963,155.476761 125.482658,155.589661 125.448807,155.533203 
z"/>
<path fill="#D4AE68" opacity="1.000000" stroke="none" 
	d="
M141.532776,114.550545 
	C141.476898,114.583984 141.588654,114.517105 141.532776,114.550545 
z"/>
<path fill="#FFFFFF" opacity="1.000000" stroke="none" 
	d="
M145.271790,231.777588 
	C146.551163,233.497498 147.582703,234.970718 148.913467,236.871262 
	C144.159958,239.188843 140.301147,237.651093 135.443237,234.967468 
	C140.244644,235.242722 144.098831,235.392487 142.976852,229.159164 
	C143.993210,230.336685 144.508606,230.933807 145.271790,231.777588 
z"/>
<path fill="#FFFFFF" opacity="1.000000" stroke="none" 
	d="
M140.307770,225.616425 
	C140.777161,225.866058 141.119370,226.266556 141.461578,226.667038 
	C141.042007,226.635864 140.622452,226.604706 140.069946,226.325653 
	C139.937027,226.077759 140.180573,225.767258 140.307770,225.616425 
z"/>
<path fill="#FFFFFF" opacity="1.000000" stroke="none" 
	d="
M108.214996,20.685692 
	C106.848106,18.855330 105.728561,17.273392 104.466995,15.490768 
	C108.816612,12.287533 112.557320,15.261624 115.807419,15.999650 
	C113.440201,17.589960 110.951271,19.262039 108.214996,20.685692 
z"/>
<path fill="#FFFFFF" opacity="1.000000" stroke="none" 
	d="
M234.064102,115.253662 
	C234.169205,114.524101 234.482529,114.046638 234.816116,113.283173 
	C233.468750,111.297462 232.101120,109.597733 230.336182,107.404228 
	C231.469528,106.509949 233.671982,104.772087 236.970291,102.169548 
	C236.378845,107.467964 239.042633,112.035049 234.064102,115.253662 
z"/>
<path fill="#D5AF68" opacity="1.000000" stroke="none" 
	d="
M228.996231,110.997147 
	C229.346375,110.748131 229.696518,110.499107 230.046661,110.250092 
	C230.134293,110.373642 230.221924,110.497200 230.309555,110.620750 
	C230.034378,110.739372 229.759216,110.857994 229.242020,110.988312 
	C229.000000,111.000000 228.996231,110.997139 228.996231,110.997147 
z"/>
<path fill="#D5AF68" opacity="1.000000" stroke="none" 
	d="
M228.004715,112.003571 
	C227.909302,112.037720 227.813873,112.071861 227.859222,112.053009 
	C228.000000,112.000000 228.004715,112.003571 228.004715,112.003571 
z"/>
<path fill="#D5AF68" opacity="1.000000" stroke="none" 
	d="
M229.001465,111.001907 
	C228.900787,111.325584 228.713562,111.586212 228.222977,111.894638 
	C228.004715,112.003571 228.000000,112.000000 227.998169,111.997612 
	C228.099091,111.673676 228.286728,111.413315 228.777740,111.105637 
	C228.996231,110.997139 229.000000,111.000000 229.001465,111.001907 
z"/>
<path fill="#FFFFFF" opacity="1.000000" stroke="none" 
	d="
M16.539604,135.213394 
	C17.313744,137.032074 17.754879,139.002243 18.544830,141.006470 
	C19.783323,141.578247 20.672998,142.115982 21.792252,142.792480 
	C19.322708,144.406815 17.028929,145.906250 14.735150,147.405685 
	C14.259456,147.271942 13.783762,147.138184 13.308067,147.004440 
	C14.274245,143.124588 15.240422,139.244736 16.539604,135.213394 
z"/>
<path fill="#FFFFFF" opacity="1.000000" stroke="none" 
	d="
M19.759434,132.798828 
	C19.582474,133.305969 19.126646,133.625000 18.365437,133.913010 
	C18.533556,133.458237 19.007061,133.034485 19.759434,132.798828 
z"/>
<path fill="#FFFFFF" opacity="1.000000" stroke="none" 
	d="
M149.686127,143.383301 
	C149.216690,143.137009 148.880035,142.737762 148.543381,142.338531 
	C148.962830,142.366684 149.382278,142.394821 149.936264,142.668060 
	C150.070801,142.913162 149.818909,143.230377 149.686127,143.383301 
z"/>
<path fill="#D3AD67" opacity="1.000000" stroke="none" 
	d="
M144.998230,137.997757 
	C145.091156,137.961197 145.185837,137.926895 145.142456,137.947998 
	C145.004395,138.003403 145.000000,138.000000 144.998230,137.997757 
z"/>
<path fill="#D4AE68" opacity="1.000000" stroke="none" 
	d="
M117.029167,97.956406 
	C116.802620,99.045212 116.552208,100.175278 116.301796,101.305351 
	C115.876915,101.179962 115.452042,101.054573 115.027161,100.929192 
	C115.485611,99.977280 115.944061,99.025368 116.743118,98.008377 
	C117.083717,97.943306 117.005302,97.997673 117.029167,97.956406 
z"/>
</svg>